<?xml version="1.0" encoding="UTF-8"?>
<!DOCTYPE svg PUBLIC "-//W3C//DTD SVG 1.1//EN" "http://www.w3.org/Graphics/SVG/1.1/DTD/svg11.dtd">
<!-- Creator: CorelDRAW 2018 (64-Bit) -->
<svg xmlns="http://www.w3.org/2000/svg" xml:space="preserve" width="9.13386in" height="11in" version="1.1" style="shape-rendering:geometricPrecision; text-rendering:geometricPrecision; image-rendering:optimizeQuality; fill-rule:evenodd; clip-rule:evenodd"
viewBox="0 0 9133.86 11000"
 xmlns:xlink="http://www.w3.org/1999/xlink">
 <defs>
  <style type="text/css">
   <![CDATA[
    .fil0 {fill:#4E73DF}
   ]]>
  </style>
 </defs>
 <g id="Layer_x0020_1">
  <metadata id="CorelCorpID_0Corel-Layer"/>
  <path class="fil0" d="M8525.74 2670.17l-3980.94 -1223.08c-216.93,-66.65 -450.98,-66.65 -667.77,0l-3981.08 1223.08c-335.96,103.19 -335.96,547.46 0,650.65l694.03 213.22c-152.28,188.24 -245.9,417.87 -255.18,669.34 -137.44,78.78 -234.2,220.92 -234.2,390.61 0,153.85 81.06,283.29 197.81,366.07l-364.36 1639.52c-31.68,142.57 76.78,277.87 222.78,277.87l800.78 0c146.14,0 254.61,-135.3 222.93,-277.87l-364.36 -1639.52c116.74,-82.78 197.81,-212.22 197.81,-366.07 0,-165.12 -92.34,-303.27 -223.5,-383.48 10.85,-214.36 120.45,-403.89 295.28,-524.06l2791.11 857.59c129.3,39.68 377.34,89.2 667.77,0l3981.08 -1223.08c336.1,-103.33 336.1,-547.46 0,-650.79zm-3846.93 2310.44c-407.17,125.02 -754.11,55.94 -936.07,0l-2069.68 -635.8 -202.37 1619.26c0,504.5 1226.79,913.38 2740.16,913.38 1513.36,0 2740.15,-408.88 2740.15,-913.38l-202.37 -1619.41 -2069.82 635.94 0 0z"/>
 </g>
</svg>
